<?xml version="1.0" encoding="UTF-8"?>
<svg version="1.1" xmlns="http://www.w3.org/2000/svg" width="500" height="500">
<path d="M0 0 C165 0 330 0 500 0 C500 165 500 330 500 500 C335 500 170 500 0 500 C0 335 0 170 0 0 Z " fill="#FEFEFE" transform="translate(0,0)"/>
<path d="M0 0 C0.73605469 0.41378906 1.47210938 0.82757813 2.23046875 1.25390625 C2.99746094 1.67800781 3.76445312 2.10210937 4.5546875 2.5390625 C22.19879287 13.29327952 30.30233688 35.31353117 37.86328125 53.58984375 C38.33588379 54.72695801 38.80848633 55.86407227 39.29541016 57.03564453 C40.22720616 59.28761698 41.14933893 61.5436211 42.06005859 63.80419922 C46.95695719 75.67246469 52.16295883 85.24291392 63.60546875 91.56640625 C67.75079186 92.65208611 71.96561105 92.93921772 76.23046875 93.25390625 C76.23046875 93.58390625 76.23046875 93.91390625 76.23046875 94.25390625 C65.1927204 95.21525853 57.5095398 93.20165527 48.76171875 86.30859375 C36.87159448 75.27358116 30.98213873 59.60324475 24.60546875 45.06640625 C23.3702248 42.25874717 22.13210323 39.45250128 20.88613892 36.64958191 C20.11827461 34.9215685 19.35634973 33.19089689 18.60189819 31.45698547 C15.92677645 25.42748185 12.72893005 19.84286193 9.23046875 14.25390625 C9.10348725 21.12219459 9.01604129 27.99017923 8.95581055 34.859375 C8.93069694 37.19510205 8.89659947 39.53075076 8.85327148 41.86621094 C8.79248383 45.22741039 8.76422663 48.5875691 8.7421875 51.94921875 C8.71638107 52.99006622 8.69057465 54.0309137 8.66398621 55.103302 C8.65415672 61.52744508 8.65415672 61.52744508 11.76098633 66.96044922 C12.57591553 67.71729004 13.39084473 68.47413086 14.23046875 69.25390625 C9.94046875 69.25390625 5.65046875 69.25390625 1.23046875 69.25390625 C2.55046875 67.93390625 3.87046875 66.61390625 5.23046875 65.25390625 C6.20889196 62.31863662 6.39067289 60.29983208 6.45507812 57.23510742 C6.47759644 56.21362106 6.50011475 55.1921347 6.52331543 54.13969421 C6.5943732 49.47333303 6.65181263 44.80712797 6.69042969 40.14038086 C6.7170664 37.67957122 6.75802334 35.21887387 6.81347656 32.75854492 C6.89254414 29.20836321 6.92572562 25.66030767 6.94921875 22.109375 C6.98221069 21.01231735 7.01520264 19.9152597 7.04919434 18.78495789 C7.12352143 13.17349123 7.12352143 13.17349123 4.75842285 8.2696228 C2.98404357 6.71155989 1.25444009 5.46539007 -0.76953125 4.25390625 C-1.43823242 3.83443222 -2.10693359 3.41495819 -2.79589844 2.98277283 C-7.87466807 -0.05837416 -12.46958691 -0.241694 -18.26953125 0.00390625 C-19.09195313 0.02195313 -19.914375 0.04 -20.76171875 0.05859375 C-22.76483929 0.10517795 -24.76734946 0.17689926 -26.76953125 0.25390625 C-26.76953125 -0.40609375 -26.76953125 -1.06609375 -26.76953125 -1.74609375 C-18.55432204 -4.48449682 -7.75888146 -3.72998154 0 0 Z " fill="#F22831" transform="translate(154.76953125,180.74609375)"/>
<path d="M0 0 C3.3 0 6.6 0 10 0 C9.01 2.31 8.02 4.62 7 7 C7.66 7.33 8.32 7.66 9 8 C8.67 8.33 8.34 8.66 8 9 C7.91262355 10.85369611 7.89301847 12.71067541 7.90234375 14.56640625 C7.90556641 15.69111328 7.90878906 16.81582031 7.91210938 17.97460938 C7.92048828 19.15861328 7.92886719 20.34261719 7.9375 21.5625 C7.94201172 22.75037109 7.94652344 23.93824219 7.95117188 25.16210938 C7.96300314 28.10809412 7.98093924 31.05405316 8 34 C10.97 31.03 13.94 28.06 17 25 C17 28 17 28 14.75 30.4375 C12 33 12 33 9.85546875 34.5703125 C7.00268708 38.30595503 7.45511219 41.86832207 7.5625 46.4375 C7.55186523 47.7069043 7.55186523 47.7069043 7.54101562 49.00195312 C7.59631167 54.43372656 7.97752352 55.9625392 11 61 C6.05 61 1.1 61 -4 61 C-3.34 60.01 -2.68 59.02 -2 58 C-1.67299844 55.71909256 -1.67299844 55.71909256 -1.68115234 53.16137695 C-1.66128265 52.1805867 -1.64141296 51.19979645 -1.62094116 50.18928528 C-1.60361435 48.60478828 -1.60361435 48.60478828 -1.5859375 46.98828125 C-1.56657135 45.90491989 -1.5472052 44.82155853 -1.5272522 43.70536804 C-1.46741656 40.24115907 -1.4210547 36.77691695 -1.375 33.3125 C-1.33682393 30.96548021 -1.29777242 28.61847448 -1.2578125 26.27148438 C-1.16171176 20.51444766 -1.07667587 14.75732641 -1 9 C-1.66 9 -2.32 9 -3 9 C-3.66 10.98 -4.32 12.96 -5 15 C-6 12 -6 12 -4.78515625 9.08203125 C-4.21667969 8.00308594 -3.64820313 6.92414063 -3.0625 5.8125 C-2.49660156 4.72582031 -1.93070313 3.63914063 -1.34765625 2.51953125 C-0.90292969 1.68808594 -0.45820313 0.85664063 0 0 Z " fill="#F32F38" transform="translate(215,189)"/>
<path d="M0 0 C8.18307358 3.5424561 11.96858287 12.59468923 16 20.0625 C20.95363808 29.31380437 20.95363808 29.31380437 28 37 C28.60457031 37.51949219 29.20914062 38.03898437 29.83203125 38.57421875 C37.03509647 43.60121455 45.62511721 42.43268625 54 42 C53.505 42.99 53.505 42.99 53 44 C45.77128286 46.11007751 34.3616469 46.62696924 27.4375 43.4375 C25.66015625 42.30078125 25.66015625 42.30078125 24 41 C23.40058594 40.56042969 22.80117187 40.12085938 22.18359375 39.66796875 C16.59135302 34.89705063 14.34848529 28.61364129 11.73828125 21.89794922 C7.37418158 10.04816301 7.37418158 10.04816301 0 0 Z " fill="#F33038" transform="translate(230,220)"/>
<path d="M0 0 C0.66 0.33 1.32 0.66 2 1 C1.98889694 1.61308014 1.97779388 2.22616028 1.96635437 2.8578186 C1.8555799 9.24930222 1.78025763 15.64051235 1.7253418 22.03271484 C1.70022591 24.41694214 1.66612676 26.80109265 1.62280273 29.18505859 C1.56202553 32.61575279 1.53376007 36.04542744 1.51171875 39.4765625 C1.48591232 40.53928375 1.4601059 41.602005 1.43351746 42.69692993 C1.40797846 49.20703432 1.40797846 49.20703432 4.53051758 54.72021484 C5.34544678 55.47254395 6.16037598 56.22487305 7 57 C2.71 57 -1.58 57 -6 57 C-4.68 55.68 -3.36 54.36 -2 53 C-1.02758055 50.08274166 -0.84832181 48.11196561 -0.79467773 45.06958008 C-0.77473251 44.06876907 -0.75478729 43.06795807 -0.73423767 42.03681946 C-0.71752518 40.95861435 -0.70081268 39.88040924 -0.68359375 38.76953125 C-0.66281265 37.66397385 -0.64203156 36.55841644 -0.62062073 35.4193573 C-0.55517668 31.8838021 -0.49626397 28.34817194 -0.4375 24.8125 C-0.3943099 22.41730992 -0.35069546 20.02212745 -0.30664062 17.62695312 C-0.19950052 11.75138158 -0.09772443 5.87573528 0 0 Z " fill="#F43F47" transform="translate(162,193)"/>
<path d="M0 0 C3.875 1.875 3.875 1.875 5 3 C5.66 2.01 6.32 1.02 7 0 C7.99 0.33 8.98 0.66 10 1 C9.01 2.485 9.01 2.485 8 4 C8.30185427 6.95817184 8.66718829 9.33437658 10 12 C8.0625 11.625 8.0625 11.625 6 11 C5.67 10.34 5.34 9.68 5 9 C4.01 10.485 4.01 10.485 3 12 C2.01 12 1.02 12 0 12 C0.37125 10.948125 0.7425 9.89625 1.125 8.8125 C2.04276246 4.81367786 1.91384609 3.50871784 0 0 Z " fill="#232323" transform="translate(283,212)"/>
<path d="M0 0 C1.32 0 2.64 0 4 0 C4 3.96 4 7.92 4 12 C2.68 12 1.36 12 0 12 C0 8.04 0 4.08 0 0 Z " fill="#5E5E5E" transform="translate(271,212)"/>
<path d="M0 0 C0.71607422 -0.01224609 1.43214844 -0.02449219 2.16992188 -0.03710938 C5.96223108 -0.04765333 8.84849094 0.06440785 12.0625 2.1875 C11.4025 2.8475 10.7425 3.5075 10.0625 4.1875 C9.0725 3.8575 8.0825 3.5275 7.0625 3.1875 C5.65425107 3.10728001 4.24252769 3.07984023 2.83203125 3.08984375 C1.62836914 3.09467773 1.62836914 3.09467773 0.40039062 3.09960938 C-0.43298828 3.10798828 -1.26636719 3.11636719 -2.125 3.125 C-3.3924707 3.13176758 -3.3924707 3.13176758 -4.68554688 3.13867188 C-6.76956155 3.15044597 -8.85353977 3.1683811 -10.9375 3.1875 C-10.9375 2.5275 -10.9375 1.8675 -10.9375 1.1875 C-7.2560193 -0.03966023 -3.83339238 0.00343186 0 0 Z " fill="#F66E74" transform="translate(138.9375,177.8125)"/>
<path d="M0 0 C3.3 0 6.6 0 10 0 C8.66666667 1.33333333 7.33333333 2.66666667 6 4 C5.21625 4.804375 4.4325 5.60875 3.625 6.4375 C0.85988732 9.13677667 -2.00460072 11.56188431 -5 14 C-3.88371346 11.39533141 -2.99673777 9.9972038 -0.8125 8.125 C1.38825325 6.05079097 1.38825325 6.05079097 0.75 2.75 C0.5025 1.8425 0.255 0.935 0 0 Z " fill="#F4454C" transform="translate(242,196)"/>
<path d="M0 0 C2.31 0 4.62 0 7 0 C7 0.66 7 1.32 7 2 C5.35 2 3.7 2 2 2 C2 2.66 2 3.32 2 4 C3.65 4 5.3 4 7 4 C7 4.66 7 5.32 7 6 C5.35 6 3.7 6 2 6 C2 7.65 2 9.3 2 11 C1.34 11 0.68 11 0 11 C0 7.37 0 3.74 0 0 Z " fill="#121212" transform="translate(241,213)"/>
<path d="M0 0 C2.4750171 1.11431765 4.67883419 2.58150978 7 4 C7 4.33 7 4.66 7 5 C2.71 5 -1.58 5 -6 5 C-2 1 -2 1 0 0 Z " fill="#F22F37" transform="translate(162,245)"/>
<path d="M0 0 C0.66 0 1.32 0 2 0 C2 2.97 2 5.94 2 9 C3.65 9 5.3 9 7 9 C7 9.66 7 10.32 7 11 C4.69 11 2.38 11 0 11 C0 7.37 0 3.74 0 0 Z " fill="#000000" transform="translate(256,213)"/>
<path d="M0 0 C3.58918119 1.4657804 5.36377741 3.36776668 7.6875 6.4375 C8.28949219 7.21996094 8.89148438 8.00242188 9.51171875 8.80859375 C11 11 11 11 12 14 C11.01 14.33 10.02 14.66 9 15 C8.68546875 14.33613281 8.3709375 13.67226562 8.046875 12.98828125 C5.74698951 8.24303558 3.55857132 3.95396814 0 0 Z " fill="#F4444B" transform="translate(230,220)"/>
</svg>
